{
.appVersion = "3151";
.formatVersion = 3;
DisplayStrings = (
"0"
);
customParameters = (
{
name = vendorID;
value = COMM;
},
{
name = panose;
value = (
2,
13,
10,
4,
3,
5,
2,
12,
2,
3
);
},
{
name = unicodeRanges;
value = (
0,
1,
2
);
},
{
name = codePageRanges;
value = (
"1252",
"1250",
"1254",
"1257",
"bit 29"
);
},
{
name = fsType;
value = (
2
);
},
{
name = "Family Alignment Zones";
value = (
{
pos = 709;
size = 19;
},
{
pos = 685;
size = 14;
},
{
pos = 510;
size = 17;
},
{
pos = 0;
size = "-17";
}
);
},
{
name = glyphOrder;
value = (
.notdef,
Eth,
eth,
Lslash,
lslash,
Scaron,
scaron,
Yacute,
yacute,
Thorn,
thorn,
Zcaron,
zcaron,
onehalf,
onequarter,
onesuperior,
threequarters,
threesuperior,
twosuperior,
brokenbar,
minus,
multiply,
space,
exclam,
quotedbl,
numbersign,
dollar,
percent,
ampersand,
quotesingle,
parenleft,
parenright,
asterisk,
plus,
comma,
hyphen,
period,
slash,
zero,
one,
two,
three,
four,
five,
six,
seven,
eight,
nine,
colon,
semicolon,
less,
equal,
greater,
question,
at,
A,
B,
C,
D,
E,
F,
G,
H,
I,
J,
K,
L,
M,
N,
O,
P,
Q,
R,
S,
T,
U,
V,
W,
X,
Y,
Z,
bracketleft,
backslash,
bracketright,
asciicircum,
underscore,
grave,
a,
b,
c,
d,
e,
f,
g,
h,
i,
j,
k,
l,
m,
n,
o,
p,
q,
r,
s,
t,
u,
v,
w,
x,
y,
z,
braceleft,
bar,
braceright,
asciitilde,
Adieresis,
Aring,
Ccedilla,
Eacute,
Ntilde,
Odieresis,
Udieresis,
aacute,
agrave,
acircumflex,
adieresis,
atilde,
aring,
ccedilla,
eacute,
egrave,
ecircumflex,
edieresis,
iacute,
igrave,
icircumflex,
idieresis,
ntilde,
oacute,
ograve,
ocircumflex,
odieresis,
otilde,
uacute,
ugrave,
ucircumflex,
udieresis,
dagger,
degree,
cent,
sterling,
section,
bullet,
paragraph,
germandbls,
registered,
copyright,
trademark,
acute,
dieresis,
notequal,
AE,
Oslash,
infinity,
plusminus,
lessequal,
greaterequal,
yen,
mu,
partialdiff,
summation,
product,
pi,
integral,
ordfeminine,
ordmasculine,
Omega,
ae,
oslash,
questiondown,
exclamdown,
logicalnot,
radical,
florin,
approxequal,
Delta,
guillemotleft,
guillemotright,
ellipsis,

glyphs = (
{
glyphname = zero;
kernLeft = zero;
kernRight = zero;
lastChange = "2023-04-13 19:49:05 +0000";
layers = (
{
hints = (
{
horizontal = 1;
place = (-16, 147);
place = (-16, 147);
type = Stem;
},
{
horizontal = 1;
place = (554, 145);
place = (554, 145);
type = Stem;
},
{
place = (28, 198);
place = (28, 198);
type = Stem;
},
{
place = (469, 199);
place = (469, 199);
type = Stem;
}
);
layerId = m01;
shapes = (
{
closed = 1;
nodes = (
(155,699,o),
(28,489,o),
(28,280,cs),
(28,93,o),
(145,-16,o),
(313,-16,cs),
(540,-16,o),
(668,192,o),
(668,404,cs),
(668,595,o),
(548,699,o),
(384,699,cs)
);
},
{
closed = 1;
nodes = (
(453,554,o),
(469,482,o),
(469,423,cs),
(469,320,o),
(433,131,o),
(317,131,cs),
(244,131,o),
(226,193,o),
(226,256,cs),
(226,358,o),
(262,554,o),
(380,554,cs)
);
},
{
closed = 1;
nodes = (
(773,818,l),
(578,-182,l),
(-85,-182,l),
(109,818,l)
);
},
{
closed = 1;
nodes = (
(0,-182,l),
(674,-182,l),
(674,818,l),
(0,818,l)
);
}
);
width = 663;
}
);
note = zero;
unicode = 48;
},
{
glyphname = one;
kernLeft = one;
kernRight = one;
lastChange = "2023-04-13 20:13:54 +0000";
layers = (
{
hints = (
{
horizontal = 1;
place = (0, 21);
target = up;
type = BottomGhost;
},
{
horizontal = 1;
place = (691, -20);
target = down;
type = TopGhost;
},
{
place = (44, 391);
place = (44, 391);
type = Stem;
}
);
layerId = m01;
shapes = (
{
closed = 1;
nodes = (
(248,585,o),
(173,539,o),
(70,535,c),
(44,398,l),
(90,398,o),
(135,398,o),
(181,398,c),
(104,0,l),
(301,0,l),
(435,691,l),
(289,691,l)
);
},
{
closed = 1;
nodes = (
(0,0,l),
(420,0,l),
(420,818,l),
(0,818,l)
);
},
{
closed = 1;
nodes = (
(516,818,l),
(356,0,l),
(-50,0,l),
(109,818,l)
);
}
);
width = 406;
}
);
note = one;
unicode = 49;
},
{
glyphname = two;
kernLeft = two;
kernRight = two;
lastChange = "2023-04-04 06:39:57 +0000";
layers = (
{
hints = (
{
horizontal = 1;
place = (0, 165);
place = (0, 165);
type = Stem;
},
{
horizontal = 1;
place = (543, 156);
place = (543, 156);
type = Stem;
},
{
place = (422, 196);
place = (422, 196);
type = Stem;
}
);
layerId = m01;
shapes = (
{
closed = 1;
nodes = (
(242,418,l),
(254,492,o),
(288,545,o),
(357,543,cs),
(399,543,o),
(422,521,o),
(422,479,cs),
(422,436,o),
(394,406,o),
(265,330,cs),
(154,265,o),
(9,224,o),
(-33,0,c),
(519,0,l),
(551,165,l),
(273,165,l),
(345,215,o),
(408,235,o),
(477,280,cs),
(572,341,o),
(618,400,o),
(618,497,cs),
(618,642,o),
(493,699,o),
(368,699,cs),
(206,699,o),
(85,622,o),
(55,418,c)
);
}
);
width = 604;
}
);
note = two;
unicode = 50;
},
{
glyphname = three;
kernLeft = three;
kernRight = three;
lastChange = "2023-04-03 23:52:59 +0000";
layers = (
{
hints = (
{
horizontal = 1;
place = (-17, 148);
place = (-17, 148);
type = Stem;
},
{
horizontal = 1;
place = (285, 130);
place = (285, 130);
type = Stem;
},
{
horizontal = 1;
place = (552, 147);
place = (552, 147);
type = Stem;
},
{
place = (5, 188);
place = (5, 188);
type = Stem;
},
{
place = (395, 198);
place = (395, 198);
type = Stem;
},
{
place = (424, 191);
place = (424, 191);
type = Stem;
}
);
layerId = m01;
shapes = (
{
closed = 1;
nodes = (
(241,463,l),
(251,518,o),
(286,552,o),
(347,552,cs),
(392,552,o),
(425,527,o),
(424,487,cs),
(424,431,o),
(375,415,o),
(328,415,cs),
(283,415,l),
(258,285,l),
(287,285,ls),
(358,285,o),
(396,259,o),
(395,212,cs),
(395,161,o),
(348,131,o),
(298,131,cs),
(219,131,o),
(193,181,o),
(193,240,c),
(5,240,l),
(-6,62,o),
(133,-17,o),
(298,-17,cs),
(449,-17,o),
(593,59,o),
(593,212,cs),
(593,285,o),
(550,331,o),
(502,353,c),
(502,355,l),
(576,384,o),
(615,438,o),
(615,509,cs),
(615,657,o),
(474,699,o),
(355,699,cs),
(194,699,o),
(76,610,o),
(56,463,c)
);
}
);
width = 620;
}
);
note = three;
unicode = 51;
},
{
glyphname = four;
kernLeft = four;
kernRight = four;
lastChange = "2023-04-04 01:06:57 +0000";
layers = (
{
hints = (
{
horizontal = 1;
place = (0, 21);
target = up;
type = BottomGhost;
},
{
horizontal = 1;
place = (154, 147);
place = (154, 147);
type = Stem;
},
{
horizontal = 1;
place = (691, -20);
target = down;
type = TopGhost;
},
{
place = (-3, 629);
place = (-3, 629);
type = Stem;
}
);
layerId = m01;
shapes = (
{
closed = 1;
nodes = (
(-3,154,l),
(314,154,l),
(285,0,l),
(475,0,l),
(504,154,l),
(597,154,l),
(626,301,l),
(533,301,l),
(609,691,l),
(420,691,l),
(29,317,l)
);
},
{
closed = 1;
nodes = (
(381,497,l),
(343,301,l),
(174,301,l)
);
}
);
width = 634;
}
);
note = four;
unicode = 52;
},
{
glyphname = five;
kernLeft = five;
kernRight = five;
lastChange = "2023-04-04 17:11:48 +0000";
layers = (
{
hints = (
{
horizontal = 1;
place = (-17, 154);
place = (-17, 154);
type = Stem;
},
{
horizontal = 1;
place = (341, 130);
place = (341, 130);
type = Stem;
},
{
horizontal = 1;
place = (528, 157);
place = (528, 157);
type = Stem;
},
{
place = (397, 198);
place = (397, 198);
type = Stem;
},
{
horizontal = 1;
place = (300, 132);
place = (300, 132);
type = Stem;
}
);
layerId = m01;
shapes = (
{
closed = 1;
nodes = (
(157,685,l),
(43,300,l),
(225,300,l),
(243,325,o),
(276,341,o),
(310,341,cs),
(368,341,o),
(398,301,o),
(397,253,cs),
(397,189,o),
(356,137,o),
(291,137,cs),
(238,137,o),
(198,166,o),
(194,211,c),
(3,211,l),
(12,40,o),
(144,-17,o),
(291,-17,cs),
(477,-17,o),
(595,98,o),
(595,259,cs),
(595,390,o),
(519,471,o),
(390,471,cs),
(322,471,o),
(277,450,o),
(251,429,c),
(251,429,l),
(281,528,l),
(589,528,l),
(620,685,l)
);
}
);
width = 617;
}
);
note = five;
unicode = 53;
},
{
glyphname = six;
kernLeft = six;
kernRight = six;
lastChange = "2023-04-04 19:31:00 +0000";
layers = (
{
hints = (
{
horizontal = 1;
place = (-16, 143);
place = (-16, 143);
type = Stem;
},
{
horizontal = 1;
place = (333, 139);
place = (333, 139);
type = Stem;
},
{
horizontal = 1;
place = (563, 136);
place = (563, 136);
type = Stem;
},
{
place = (26, 187);
place = (26, 187);
type = Stem;
},
{
place = (423, 187);
place = (423, 187);
type = Stem;
},
{
horizontal = 1;
place = (509, 190);
place = (509, 190);
type = Stem;
}
);
layerId = m01;
shapes = (
{
closed = 1;
nodes = (
(631,649,o),
(520,699,o),
(397,699,cs),
(160,699,o),
(26,490,o),
(26,257,cs),
(26,70,o),
(144,-16,o),
(307,-16,cs),
(475,-15,o),
(610,86,o),
(610,260,cs),
(610,396,o),
(503,472,o),
(395,472,cs),
(329,472,o),
(282,446,o),
(240,408,c),
(240,408,l),
(270,514,o),
(322,563,o),
(385,563,cs),
(424,563,o),
(454,545,o),
(457,509,c),
(645,509,l)
);
},
{
closed = 1;
nodes = (
(386,333,o),
(423,296,o),
(423,245,cs),
(423,173,o),
(370,127,o),
(307,127,cs),
(250,127,o),
(213,163,o),
(213,216,cs),
(213,286,o),
(267,333,o),
(329,333,cs)
);
}
);
width = 631;
}
);
note = six;
unicode = 54;
},
{
glyphname = seven;
kernLeft = seven;
kernRight = seven;
lastChange = "2023-04-04 01:42:37 +0000";
layers = (
{
hints = (
{
horizontal = 1;
place = (0, 21);
target = up;
type = BottomGhost;
},
{
horizontal = 1;
place = (515, 170);
place = (515, 170);
type = Stem;
},
{
place = (65, 550);
place = (65, 550);
type = Stem;
}
);
layerId = m01;
shapes = (
{
closed = 1;
nodes = (
(65,515,l),
(377,515,l),
(265,423,o),
(124,243,o),
(67,0,c),
(269,0,l),
(315,219,o),
(445,420,o),
(586,537,c),
(615,685,l),
(98,685,l)
);
}
);
width = 550;
}
);
note = seven;
unicode = 55;
},
{
glyphname = eight;
kernLeft = eight;
kernRight = eight;
lastChange = "2023-04-04 18:15:10 +0000";
layers = (
{
hints = (
{
horizontal = 1;
place = (-17, 139);
place = (-17, 139);
type = Stem;
},
{
horizontal = 1;
place = (299, 118);
place = (299, 118);
type = Stem;
},
{
horizontal = 1;
place = (570, 129);
place = (570, 129);
type = Stem;
},
{
place = (2, 194);
place = (2, 194);
type = Stem;
},
{
place = (435, 178);
place = (435, 178);
type = Stem;
},
{
place = (398, 190);
place = (398, 190);
type = Stem;
},
{
place = (82, 175);
place = (82, 175);
type = Stem;
}
);
layerId = m01;
shapes = (
{
closed = 1;
nodes = (
(213,699,o),
(82,619,o),
(82,485,cs),
(82,438,o),
(100,396,o),
(145,363,c),
(145,363,l),
(60,332,o),
(2,278,o),
(2,181,cs),
(2,37,o),
(152,-17,o),
(284,-17,cs),
(436,-17,o),
(588,55,o),
(588,211,cs),
(588,270,o),
(562,322,o),
(502,352,c),
(502,352,l),
(575,390,o),
(613,433,o),
(613,513,cs),
(613,641,o),
(479,699,o),
(355,699,cs)
);
},
{
closed = 1;
nodes = (
(358,299,o),
(397,269,o),
(398,221,cs),
(399,159,o),
(347,123,o),
(292,122,cs),
(237,122,o),
(196,152,o),
(196,202,cs),
(196,266,o),
(251,299,o),
(304,299,cs)
);
},
{
closed = 1;
nodes = (
(399,570,o),
(434,542,o),
(435,498,cs),
(436,440,o),
(389,417,o),
(342,417,cs),
(293,417,o),
(257,438,o),
(257,485,cs),
(257,543,o),
(308,569,o),
(351,570,cs)
);
}
);
width = 611;
}
);
note = eight;
unicode = 56;
},
{
glyphname = nine;
kernLeft = nine;
kernRight = nine;
lastChange = "2023-04-04 02:03:51 +0000";
layers = (
{
hints = (
{
horizontal = 1;
place = (-16, 136);
place = (-16, 136);
type = Stem;
},
{
horizontal = 1;
place = (207, 139);
place = (207, 139);
type = Stem;
},
{
horizontal = 1;
place = (556, 143);
place = (556, 143);
type = Stem;
},
{
place = (49, 188);
place = (49, 188);
type = Stem;
},
{
place = (447, 185);
place = (447, 185);
type = Stem;
},
{
horizontal = 1;
place = (-16, 192);
place = (-16, 192);
type = Stem;
}
);
layerId = m01;
shapes = (
{
closed = 1;
nodes = (
(329,207,o),
(376,233,o),
(417,270,c),
(391,164,o),
(341,120,o),
(272,120,cs),
(232,120,o),
(203,137,o),
(198,176,c),
(10,176,l),
(22,30,o),
(138,-16,o),
(261,-16,cs),
(520,-16,o),
(632,184,o),
(632,431,cs),
(632,611,o),
(514,699,o),
(351,699,cs),
(183,698,o),
(49,591,o),
(49,417,cs),
(49,281,o),
(155,207,o),
(263,207,cs)
);
},
{
closed = 1;
nodes = (
(274,346,o),
(237,385,o),
(237,436,cs),
(237,508,o),
(288,556,o),
(351,556,cs),
(408,556,o),
(447,518,o),
(447,465,cs),
(447,395,o),
(393,346,o),
(331,346,cs)
);
}
);
width = 626;
}
);
note = nine;
unicode = 57;
},
{
glyphname = A;
kernLeft = A;
kernRight = A;
lastChange = "2023-04-04 19:55:43 +0000";
layers = (
{
hints = (
{
horizontal = 1;
place = (0, 21);
target = up;
type = BottomGhost;
},
{
horizontal = 1;
place = (106, 142);
place = (106, 142);
type = Stem;
},
{
horizontal = 1;
place = (715, -20);
target = down;
type = TopGhost;
},
{
place = (-55, 730);
place = (-55, 730);
type = Stem;
}
);
layerId = m01;
shapes = (
{
closed = 1;
nodes = (
(-55,0,l),
(153,0,l),
(206,106,l),
(445,106,l),
(460,0,l),
(675,0,l),
(543,715,l),
(334,715,l)
);
},
{
closed = 1;
nodes = (
(425,248,l),
(278,248,l),
(394,486,l)
);
}
);
width = 718;
}
);
note = A;
unicode = 65;
},
{
glyphname = B;
lastChange = "2023-04-04 19:55:49 +0000";
layers = (
{
hints = (
{
horizontal = 1;
place = (0, 162);
place = (0, 162);
type = Stem;
},
{
horizontal = 1;
place = (304, 132);
place = (304, 132);
type = Stem;
},
{
horizontal = 1;
place = (555, 160);
place = (555, 160);
type = Stem;
},
{
place = (461, 197);
place = (461, 197);
type = Stem;
},
{
place = (485, 199);
place = (485, 199);
type = Stem;
}
);
layerId = m01;
shapes = (
{
closed = 1;
nodes = (
(-8,0,l),
(387,0,ls),
(547,0,o),
(658,94,o),
(658,238,cs),
(658,308,o),
(619,356,o),
(562,383,c),
(637,410,o),
(684,465,o),
(684,539,cs),
(684,664,o),
(582,715,o),
(454,715,cs),
(130,715,l)
);
},
{
closed = 1;
nodes = (
(424,555,ls),
(460,555,o),
(485,534,o),
(485,502,cs),
(485,452,o),
(445,436,o),
(413,436,cs),
(278,436,l),
(301,555,l)
);
},
{
closed = 1;
nodes = (
(391,304,ls),
(430,304,o),
(461,281,o),
(461,241,cs),
(461,186,o),
(421,162,o),
(377,162,cs),
(225,162,l),
(252,304,l)
);
}
);
width = 674;
}
);
note = B;
unicode = 66;
},
{
glyphname = C;
kernLeft = C;
kernRight = C;
lastChange = "2023-04-04 02:18:11 +0000";
layers = (
{
hints = (
{
horizontal = 1;
place = (-17, 170);
place = (-17, 170);
type = Stem;
},
{
horizontal = 1;
place = (557, 171);
place = (557, 171);
type = Stem;
},
{
place = (28, 210);
place = (28, 210);
type = Stem;
},
{
place = (520, 207);
place = (520, 207);
type = Stem;
}
);
layerId = m01;
shapes = (
{
closed = 1;
nodes = (
(719,639,o),
(608,728,o),
(417,728,cs),
(181,728,o),
(28,531,o),
(28,301,cs),
(28,91,o),
(162,-17,o),
(359,-17,cs),
(520,-17,o),
(668,71,o),
(704,266,c),
(494,266,l),
(477,191,o),
(426,153,o),
(360,153,cs),
(270,153,o),
(238,225,o),
(238,306,cs),
(238,425,o),
(290,557,o),
(414,557,cs),
(487,557,o),
(519,512,o),
(520,450,c),
(727,450,l)
);
}
);
width = 706;
}
);
note = C;
unicode = 67;
},
{
glyphname = D;
kernRight = Eth;
lastChange = "2023-04-04 19:55:51 +0000";
layers = (
{
hints = (
{
horizontal = 1;
place = (0, 171);
place = (0, 171);
type = Stem;
},
{
horizontal = 1;
place = (544, 171);
place = (544, 171);
type = Stem;
},
{
place = (517, 210);
place = (517, 210);
type = Stem;
}
);
layerId = m01;
shapes = (
{
closed = 1;
nodes = (
(-8,0,l),
(335,0,ls),
(581,0,o),
(727,166,o),
(727,408,cs),
(727,601,o),
(601,715,o),
(414,715,cs),
(130,715,l)
);
},
{
closed = 1;
nodes = (
(378,544,ls),
(468,544,o),
(517,493,o),
(517,393,cs),
(517,264,o),
(448,171,o),
(333,171,cs),
(231,171,l),
(303,544,l)
);
}
);
width = 718;
}
);
note = D;
unicode = 68;
},
{
glyphname = E;
kernRight = E;
layers = (
{
hints = (
{
horizontal = 1;
place = (0, 177);
place = (0, 177);
type = Stem;
},
{
horizontal = 1;
place = (292, 155);
place = (292, 155);
type = Stem;
},
{
horizontal = 1;
place = (547, 168);
place = (547, 168);
type = Stem;
},
{
place = (-8, 678);
place = (-8, 678);
type = Stem;
}
);
layerId = m01;
shapes = (
{
closed = 1;
nodes = (
(-8,0,l),
(546,0,l),
(580,177,l),
(232,177,l),
(254,292,l),
(535,292,l),
(565,447,l),
(285,447,l),
(303,547,l),
(637,547,l),
(670,715,l),
(130,715,l)
);
}
);
width = 623;
}
);
note = E;
unicode = 69;
},
{
glyphname = F;
kernRight = F;
layers = (
{
hints = (
{
horizontal = 1;
place = (0, 21);
target = up;
type = BottomGhost;
},
{
horizontal = 1;
place = (261, 160);
place = (261, 160);
type = Stem;
},
{
horizontal = 1;
place = (541, 174);
place = (541, 174);
type = Stem;
},
{
place = (-8, 675);
place = (-8, 675);
type = Stem;
}
);
layerId = m01;
shapes = (
{
closed = 1;
nodes = (
(-8,0,l),
(198,0,l),
(248,261,l),
(525,261,l),
(556,421,l),
(280,421,l),
(302,541,l),
(633,541,l),
(667,715,l),
(130,715,l)
);
}
);
width = 595;
}
);
note = F;
unicode = 70;
},
{
glyphname = G;
kernLeft = C;
kernRight = G;
lastChange = "2023-04-04 02:28:18 +0000";
layers = (
{
hints = (
{
horizontal = 1;
place = (0, 21);
target = up;
type = BottomGhost;
},
{
horizontal = 1;
place = (240, 148);
place = (240, 148);
type = Stem;
},
{
horizontal = 1;
place = (557, 171);
place = (557, 171);
type = Stem;
},
{
place = (26, 212);
place = (26, 212);
type = Stem;
},
{
horizontal = 1;
place = (-17, 168);
place = (-17, 168);
type = Stem;
}
);
layerId = m01;
shapes = (
{
closed = 1;
nodes = (
(723,654,o),
(587,728,o),
(429,728,cs),
(176,728,o),
(26,516,o),
(26,296,cs),
(26,89,o),
(152,-17,o),
(320,-17,cs),
(397,-17,o),
(471,19,o),
(510,71,c),
(514,0,l),
(651,0,l),
(726,388,l),
(435,388,l),
(406,240,l),
(500,240,l),
(500,240,l),
(483,184,o),
(441,151,o),
(371,151,cs),
(274,151,o),
(238,214,o),
(238,303,cs),
(238,430,o),
(298,557,o),
(424,557,cs),
(482,557,o),
(518,525,o),
(524,472,c),
(726,472,l)
);
}
);
width = 728;
}
);
note = G;
unicode = 71;
},
{
glyphname = H;
lastChange = "2023-04-04 02:30:33 +0000";
layers = (
{
hints = (
{
horizontal = 1;
place = (0, 21);
target = up;
type = BottomGhost;
},
{
horizontal = 1;
place = (281, 171);
place = (281, 171);
type = Stem;
},
{
horizontal = 1;
place = (715, -20);
target = down;
type = TopGhost;
},
{
place = (-8, 761);
place = (-8, 761);
type = Stem;
}
);
layerId = m01;
shapes = (
{
closed = 1;
nodes = (
(-8,0,l),
(198,0,l),
(252,281,l),
(463,281,l),
(409,0,l),
(615,0,l),
(753,715,l),
(547,715,l),
(496,452,l),
(285,452,l),
(336,715,l),
(130,715,l)
);
}
);
width = 707;
}
);
note = H;
unicode = 72;
},
{
glyphname = I;
layers = (
{
hints = (
{
horizontal = 1;
place = (0, 21);
target = up;
type = BottomGhost;
},
{
horizontal = 1;
place = (715, -20);
target = down;
type = TopGhost;
},
{
place = (-8, 344);
place = (-8, 344);
type = Stem;
}
);
layerId = m01;
shapes = (
{
closed = 1;
nodes = (
(-8,0,l),
(198,0,l),
(336,715,l),
(130,715,l)
);
}
);
width = 290;
}
);
note = I;
unicode = 73;
},
{
glyphname = J;
kernLeft = J;
kernRight = J;
lastChange = "2023-04-04 02:30:41 +0000";
layers = (
{
hints = (
{
horizontal = 1;
place = (-13, 173);
place = (-13, 173);
type = Stem;
},
{
horizontal = 1;
place = (715, -20);
target = down;
type = TopGhost;
},
{
place = (-4, 616);
place = (-4, 616);
type = Stem;
}
);
layerId = m01;
shapes = (
{
closed = 1;
nodes = (
(312,225,ls),
(304,185,o),
(286,160,o),
(246,160,cs),
(195,160,o),
(182,191,o),
(191,237,cs),
(201,290,l),
(11,290,l),
(3,250,ls),
(-33,69,o),
(81,-13,o),
(237,-13,cs),
(381,-13,o),
(484,49,o),
(513,203,cs),
(612,715,l),
(407,715,l)
);
}
);
width = 562;
}
);
note = J;
unicode = 74;
},
{
glyphname = K;
kernRight = K;
lastChange = "2023-04-04 02:34:09 +0000";
layers = (
{
hints = (
{
horizontal = 1;
place = (0, 21);
target = up;
type = BottomGhost;
},
{
horizontal = 1;
place = (715, -20);
target = down;
type = TopGhost;
},
{
place = (-8, 789);
place = (-8, 789);
type = Stem;
}
);
layerId = m01;
shapes = (
{
closed = 1;
nodes = (
(-8,0,l),
(198,0,l),
(241,222,l),
(306,283,l),
(432,0,l),
(659,0,l),
(465,421,l),
(781,715,l),
(542,715,l),
(289,472,l),
(336,715,l),
(130,715,l)
);
}
);
width = 702;
}
);
note = K;
unicode = 75;
},
{
glyphname = L;
kernRight = L;
layers = (
{
hints = (
{
horizontal = 1;
place = (0, 177);
place = (0, 177);
type = Stem;
},
{
horizontal = 1;
place = (715, -20);
target = down;
type = TopGhost;
},
{
place = (-8, 536);
place = (-8, 536);
type = Stem;
}
);
layerId = m01;
shapes = (
{
closed = 1;
nodes = (
(-8,0,l),
(494,0,l),
(528,177,l),
(232,177,l),
(336,715,l),
(130,715,l)
);
}
);
width = 556;
}
);
note = L;
unicode = 76;
},
{
glyphname = M;
lastChange = "2023-04-04 02:45:48 +0000";
layers = (
{
hints = (
{
horizontal = 1;
place = (0, 21);
target = up;
type = BottomGhost;
},
{
horizontal = 1;
place = (715, -20);
target = down;
type = TopGhost;
},
{
place = (-8, 894);
place = (-8, 894);
type = Stem;
}
);
layerId = m01;
shapes = (
{
closed = 1;
nodes = (
(-8,0,l),
(173,0,l),
(262,458,l),
(263,458,l),
(294,0,l),
(445,0,l),
(649,455,l),
(650,455,l),
(562,0,l),
(748,0,l),
(886,715,l),
(613,715,l),
(430,315,l),
(428,315,l),
(395,715,l),
(130,715,l)
);
}
);
width = 840;
}
);
note = M;
unicode = 77;
},
{
glyphname = N;
lastChange = "2023-04-04 02:49:45 +0000";
layers = (
{
hints = (
{
horizontal = 1;
place = (0, 21);
target = up;
type = BottomGhost;
},
{
horizontal = 1;
place = (715, -20);
target = down;
type = TopGhost;
},
{
place = (-8, 767);
place = (-8, 767);
type = Stem;
}
);
layerId = m01;
shapes = (
{
closed = 1;
nodes = (
(-8,0,l),
(191,0,l),
(272,417,l),
(273,417,l),
(407,0,l),
(621,0,l),
(759,715,l),
(560,715,l),
(479,300,l),
(478,300,l),
(337,715,l),
(130,715,l)
);
}
);
width = 713;
}
);
note = N;
unicode = 78;
},
{
glyphname = O;
kernLeft = C;
kernRight = O;
lastChange = "2023-04-04 19:55:57 +0000";
layers = (
{
hints = (
{
horizontal = 1;
place = (-17, 166);
place = (-17, 166);
type = Stem;
},
{
horizontal = 1;
place = (562, 166);
place = (562, 166);
type = Stem;
},
{
place = (29, 207);
place = (29, 207);
type = Stem;
},
{
place = (542, 207);
place = (542, 207);
type = Stem;
}
);
layerId = m01;
shapes = (
{
closed = 1;
nodes = (
(187,728,o),
(31,532,o),
(29,299,cs),
(27,86,o),
(176,-17,o),
(362,-17,cs),
(594,-16,o),
(749,175,o),
(749,404,cs),
(749,614,o),
(620,728,o),
(423,728,cs)
);
},
{
closed = 1;
nodes = (
(509,562,o),
(542,493,o),
(542,405,cs),
(542,287,o),
(488,149,o),
(365,149,cs),
(273,149,o),
(236,218,o),
(236,299,cs),
(236,415,o),
(291,561,o),
(416,562,cs)
);
}
);
width = 740;
}
);
note = O;
unicode = 79;
},
{
glyphname = P;
kernRight = P;
lastChange = "2023-04-04 19:55:59 +0000";
layers = (
{
hints = (
{
horizontal = 1;
place = (0, 21);
target = up;
type = BottomGhost;
},
{
horizontal = 1;
place = (219, 160);
place = (219, 160);
type = Stem;
},
{
horizontal = 1;
place = (544, 171);
place = (544, 171);
type = Stem;
},
{
place = (480, 205);
place = (480, 205);
type = Stem;
}
);
layerId = m01;
shapes = (
{
closed = 1;
nodes = (
(-8,0,l),
(198,0,l),
(240,219,l),
(407,219,ls),
(567,219,o),
(685,323,o),
(685,492,cs),
(685,644,o),
(579,715,o),
(417,715,cs),
(130,715,l)
);
},
{
closed = 1;
nodes = (
(404,544,ls),
(454,544,o),
(480,522,o),
(480,475,cs),
(480,412,o),
(436,379,o),
(384,379,cs),
(271,379,l),
(303,544,l)
);
}
);
width = 652;
}
);
note = P;
unicode = 80;
},
{
glyphname = Q;
kernLeft = C;
kernRight = Q;
lastChange = "2023-04-04 19:56:01 +0000";
layers = (
{
hints = (
{
horizontal = 1;
place = (-17, 164);
place = (-17, 164);
type = Stem;
},
{
horizontal = 1;
place = (562, 166);
place = (562, 166);
type = Stem;
},
{
place = (29, 207);
place = (29, 207);
type = Stem;
},
{
place = (542, 207);
place = (542, 207);
type = Stem;
}
);
layerId = m01;
shapes = (
{
closed = 1;
nodes = (
(184,728,o),
(31,532,o),
(29,299,cs),
(27,86,o),
(176,-17,o),
(362,-17,cs),
(421,-16,o),
(475,-4,o),
(523,18,c),
(607,-67,l),
(702,24,l),
(631,96,l),
(706,173,o),
(749,283,o),
(749,404,cs),
(749,614,o),
(620,728,o),
(420,728,cs)
);
},
{
closed = 1;
nodes = (
(509,562,o),
(542,493,o),
(542,405,cs),
(542,331,o),
(531,269,o),
(506,224,c),
(428,304,l),
(332,213,l),
(395,149,l),
(385,147,o),
(375,147,o),
(365,147,cs),
(273,147,o),
(236,218,o),
(236,299,cs),
(236,415,o),
(291,561,o),
(416,562,cs)
);
}
);
width = 740;
}
);
note = Q;
unicode = 81;
},
{
glyphname = R;
kernRight = R;
lastChange = "2023-04-04 19:56:03 +0000";
layers = (
{
hints = (
{
horizontal = 1;
place = (0, 11);
place = (0, 11);
type = Stem;
},
{
horizontal = 1;
place = (250, 147);
place = (250, 147);
type = Stem;
},
{
horizontal = 1;
place = (553, 162);
place = (553, 162);
type = Stem;
},
{
place = (424, 200);
place = (424, 200);
type = Stem;
},
{
place = (481, 206);
place = (481, 206);
type = Stem;
}
);
layerId = m01;
shapes = (
{
closed = 1;
nodes = (
(-8,0,l),
(198,0,l),
(246,250,l),
(336,250,ls),
(404,250,o),
(424,215,o),
(424,156,cs),
(424,118,o),
(421,74,o),
(421,46,cs),
(421,28,o),
(423,9,o),
(429,0,c),
(637,0,l),
(637,11,l),
(629,17,o),
(623,33,o),
(623,60,cs),
(622,97,o),
(624,147,o),
(624,179,cs),
(624,256,o),
(596,303,o),
(539,327,c),
(539,327,l),
(641,365,o),
(687,420,o),
(687,523,cs),
(687,655,o),
(572,715,o),
(433,715,cs),
(130,715,l)
);
},
{
closed = 1;
nodes = (
(401,553,ls),
(455,553,o),
(481,527,o),
(481,484,cs),
(481,423,o),
(437,397,o),
(385,397,cs),
(275,397,l),
(305,553,l)
);
}
);
width = 680;
}
);
note = R;
unicode = 82;
},
{
glyphname = S;
kernLeft = Scaron;
kernRight = Scaron;
lastChange = "2023-04-04 03:05:29 +0000";
layers = (
{
hints = (
{
horizontal = 1;
place = (-17, 160);
place = (-17, 160);
type = Stem;
},
{
horizontal = 1;
place = (575, 153);
place = (575, 153);
type = Stem;
},
{
place = (66, 200);
place = (66, 200);
type = Stem;
},
{
place = (409, 213);
place = (409, 213);
type = Stem;
}
);
layerId = m01;
shapes = (
{
closed = 1;
nodes = (
(644,682,o),
(485,728,o),
(352,728,cs),
(192,728,o),
(66,651,o),
(66,493,cs),
(66,373,o),
(153,325,o),
(282,280,cs),
(357,254,o),
(408,239,o),
(409,204,cs),
(409,155,o),
(363,143,o),
(316,143,cs),
(250,143,o),
(204,172,o),
(203,228,c),
(-8,228,l),
(-11,33,o),
(162,-17,o),
(310,-17,cs),
(470,-17,o),
(622,62,o),
(622,235,cs),
(622,358,o),
(527,405,o),
(426,440,cs),
(312,479,o),
(266,485,o),
(266,524,cs),
(266,560,o),
(308,575,o),
(346,575,cs),
(398,575,o),
(432,552,o),
(434,510,c),
(637,510,l)
);
}
);
width = 642;
}
);
note = S;
unicode = 83;
},
{
glyphname = T;
kernLeft = T;
kernRight = T;
layers = (
{
hints = (
{
horizontal = 1;
place = (0, 21);
target = up;
type = BottomGhost;
},
{
horizontal = 1;
place = (539, 176);
place = (539, 176);
type = Stem;
},
{
place = (69, 634);
place = (69, 634);
type = Stem;
}
);
layerId = m01;
shapes = (
{
closed = 1;
nodes = (
(69,539,l),
(265,539,l),
(161,0,l),
(366,0,l),
(470,539,l),
(669,539,l),
(703,715,l),
(103,715,l)
);
}
);
width = 630;
}
);
note = T;
unicode = 84;
},
{
glyphname = U;
kernLeft = U;
kernRight = U;
lastChange = "2023-04-04 03:10:34 +0000";
layers = (
{
hints = (
{
horizontal = 1;
place = (-13, 166);
place = (-13, 166);
type = Stem;
},
{
horizontal = 1;
place = (715, -20);
target = down;
type = TopGhost;
},
{
place = (36, 206);
place = (36, 206);
type = Stem;
}
);
layerId = m01;
shapes = (
{
closed = 1;
nodes = (
(44,296,ls),
(1,74,o),
(146,-13,o),
(338,-13,cs),
(526,-13,o),
(631,80,o),
(664,252,cs),
(753,715,l),
(548,715,l),
(459,257,ls),
(446,189,o),
(409,153,o),
(346,153,cs),
(265,153,o),
(231,198,o),
(245,271,cs),
(331,715,l),
(125,715,l)
);
}
);
width = 703;
}
);
note = U;
unicode = 85;
},
{
glyphname = V;
kernLeft = V;
kernRight = V;
lastChange = "2023-04-04 03:10:38 +0000";
layers = (
{
hints = (
{
horizontal = 1;
place = (0, 21);
target = up;
type = BottomGhost;
},
{
horizontal = 1;
place = (715, -20);
target = down;
type = TopGhost;
},
{
place = (84, 678);
place = (84, 678);
type = Stem;
}
);
layerId = m01;
shapes = (
{
closed = 1;
nodes = (
(177,0,l),
(408,0,l),
(762,715,l),
(550,715,l),
(336,240,l),
(336,240,l),
(293,715,l),
(84,715,l)
);
}
);
width = 673;
}
);
note = V;
unicode = 86;
},
{
glyphname = W;
kernLeft = W;
kernRight = W;
lastChange = "2023-04-04 04:30:19 +0000";
layers = (
{
hints = (
{
horizontal = 1;
place = (0, 21);
target = up;
type = BottomGhost;
},
{
horizontal = 1;
place = (715, -20);
target = down;
type = TopGhost;
},
{
place = (519, 143);
place = (519, 143);
type = Stem;
}
);
layerId = m01;
shapes = (
{
closed = 1;
nodes = (
(138,0,l),
(349,0,l),
(511,446,l),
(513,446,l),
(524,0,l),
(732,0,l),
(1038,715,l),
(826,715,l),
(662,267,l),
(662,267,l),
(651,715,l),
(465,715,l),
(294,267,l),
(294,267,l),
(289,715,l),
(85,715,l)
);
}
);
width = 950;
}
);
note = W;
unicode = 87;
},
{
glyphname = X;
kernLeft = X;
kernRight = X;
lastChange = "2023-04-04 04:42:48 +0000";
layers = (
{
hints = (
{
horizontal = 1;
place = (0, 21);
target = up;
type = BottomGhost;
},
{
horizontal = 1;
place = (520, -20);
target = down;
type = TopGhost;
},
{
horizontal = 1;
place = (715, -20);
target = down;
type = TopGhost;
},
{
place = (-58, 856);
place = (-58, 856);
type = Stem;
}
);
layerId = m01;
shapes = (
{
closed = 1;
nodes = (
(259,382,l),
(-58,0,l),
(186,0,l),
(355,224,l),
(355,224,l),
(444,0,l),
(682,0,l),
(513,368,l),
(798,715,l),
(561,715,l),
(413,520,l),
(413,520,l),
(330,715,l),
(100,715,l)
);
}
);
width = 723;
}
);
note = X;
unicode = 88;
},
{
glyphname = Y;
kernLeft = Yacute;
kernRight = Yacute;
lastChange = "2023-04-04 04:46:37 +0000";
layers = (
{
hints = (
{
horizontal = 1;
place = (0, 21);
target = up;
type = BottomGhost;
},
{
horizontal = 1;
place = (715, -20);
target = down;
type = TopGhost;
},
{
place = (81, 685);
place = (81, 685);
type = Stem;
}
);
layerId = m01;
shapes = (
{
closed = 1;
nodes = (
(232,253,l),
(184,0,l),
(390,0,l),
(437,245,l),
(766,715,l),
(544,715,l),
(368,440,l),
(368,440,l),
(301,715,l),
(81,715,l)
);
}
);
width = 673;
}
);
note = Y;
unicode = 89;
},
{
glyphname = Z;
kernLeft = Zcaron;
kernRight = Zcaron;
lastChange = "2023-04-04 04:54:54 +0000";
layers = (
{
hints = (
{
horizontal = 1;
place = (0, 174);
place = (0, 174);
type = Stem;
},
{
horizontal = 1;
place = (541, 174);
place = (541, 174);
type = Stem;
},
{
place = (-29, 730);
place = (-29, 730);
type = Stem;
}
);
layerId = m01;
shapes = (
{
closed = 1;
nodes = (
(101,541,l),
(394,541,l),
(394,541,l),
(3,169,l),
(-29,0,l),
(582,0,l),
(615,174,l),
(262,174,l),
(262,174,l),
(672,561,l),
(701,715,l),
(134,715,l)
);
}
);
width = 652;
}
);
note = Z;
unicode = 90;
},
{
glyphname = a;
kernLeft = a;
kernRight = a;
lastChange = "2023-04-04 20:23:59 +0000";
layers = (
{
hints = (
{
horizontal = 1;
place = (0, 8);
place = (0, 8);
type = Stem;
},
{
horizontal = 1;
place = (403, 123);
place = (403, 123);
type = Stem;
},
{
place = (-9, 179);
place = (-9, 179);
type = Stem;
},
{
place = (288, 181);
place = (288, 181);
type = Stem;
},
{
place = (344, 181);
place = (344, 181);
type = Stem;
},
{
horizontal = 1;
place = (342, 184);
place = (342, 184);
type = Stem;
},
{
horizontal = 1;
place = (-13, 21);
target = up;
type = BottomGhost;
},
{
horizontal = 1;
place = (-13, 113);
place = (-13, 113);
type = Stem;
}
);
layerId = m01;
shapes = (
{
closed = 1;
nodes = (
(218,342,l),
(228,382,o),
(253,403,o),
(296,403,cs),
(331,403,o),
(344,384,o),
(344,363,cs),
(344,313,o),
(298,305,o),
(192,299,cs),
(68,292,o),
(-9,245,o),
(-9,131,cs),
(-9,44,o),
(49,-13,o),
(149,-13,cs),
(195,-13,o),
(248,9,o),
(286,56,c),
(288,56,l),
(288,47,ls),
(288,39,o),
(289,28,o),
(290,20,cs),
(291,13,o),
(293,6,o),
(296,0,c),
(477,0,l),
(478,8,l),
(473,13,o),
(470,23,o),
(469,37,cs),
(469,49,o),
(471,64,o),
(475,84,cs),
(519,309,ls),
(548,459,o),
(463,526,o),
(307,526,cs),
(140,526,o),
(61,450,o),
(41,342,c)
);
},
{
closed = 1;
nodes = (
(314,183,ls),
(301,119,o),
(265,100,o),
(226,100,cs),
(192,100,o),
(170,113,o),
(170,147,cs),
(170,194,o),
(213,203,o),
(247,208,cs),
(279,213,o),
(303,219,o),
(323,228,c)
);
}
);
width = 542;
}
);
note = a;
unicode = 97;
},
{
glyphname = b;
kernLeft = b;
kernRight = thorn;
lastChange = "2023-04-04 19:56:10 +0000";
layers = (
{
hints = (
{
horizontal = 1;
place = (-17, 142);
place = (-17, 142);
type = Stem;
},
{
horizontal = 1;
place = (391, 135);
place = (391, 135);
type = Stem;
},
{
horizontal = 1;
place = (715, -20);
target = down;
type = TopGhost;
},
{
place = (394, 187);
place = (394, 187);
type = Stem;
},
{
horizontal = 1;
place = (0, 125);
place = (0, 125);
type = Stem;
}
);
layerId = m01;
shapes = (
{
closed = 1;
nodes = (
(-17,0,l),
(161,0,l),
(175,77,l),
(177,77,l),
(205,9,o),
(267,-17,o),
(332,-17,cs),
(502,-17,o),
(581,159,o),
(581,302,cs),
(581,429,o),
(518,526,o),
(403,526,cs),
(343,526,o),
(301,502,o),
(261,461,c),
(258,461,l),
(307,715,l),
(121,715,l)
);
},
{
closed = 1;
nodes = (
(381,391,o),
(394,338,o),
(394,292,cs),
(394,220,o),
(364,125,o),
(287,125,cs),
(228,125,o),
(211,178,o),
(211,230,cs),
(211,301,o),
(249,391,o),
(326,391,cs)
);
}
);
width = 592;
}
);
note = b;
unicode = 98;
},
{
glyphname = c;
kernLeft = c;
kernRight = c;
lastChange = "2023-04-04 05:10:01 +0000";
layers = (
{
hints = (
{
horizontal = 1;
place = (-16, 132);
place = (-16, 132);
type = Stem;
},
{
horizontal = 1;
place = (394, 131);
place = (394, 131);
type = Stem;
},
{
place = (9, 187);
place = (9, 187);
type = Stem;
},
{
place = (370, 176);
place = (370, 176);
type = Stem;
}
);
layerId = m01;
shapes = (
{
closed = 1;
nodes = (
(543,462,o),
(444,525,o),
(311,525,cs),
(129,525,o),
(9,387,o),
(9,210,cs),
(9,46,o),
(132,-16,o),
(269,-16,cs),
(401,-15,o),
(511,63,o),
(535,206,c),
(360,206,l),
(345,145,o),
(309,116,o),
(267,116,cs),
(213,116,o),
(196,159,o),
(196,208,cs),
(196,282,o),
(228,394,o),
(307,394,cs),
(354,394,o),
(367,362,o),
(370,321,c),
(546,321,l)
);
}
);
width = 550;
}
);
note = c;
unicode = 99;
},
{
glyphname = d;
kernLeft = d;
lastChange = "2023-04-04 19:56:11 +0000";
layers = (
{
hints = (
{
horizontal = 1;
place = (-17, 141);
place = (-17, 141);
type = Stem;
},
{
horizontal = 1;
place = (392, 134);
place = (392, 134);
type = Stem;
},
{
horizontal = 1;
place = (715, -20);
target = down;
type = TopGhost;
},
{
place = (9, 194);
place = (9, 194);
type = Stem;
},
{
horizontal = 1;
place = (0, 124);
place = (0, 124);
type = Stem;
}
);
layerId = m01;
shapes = (
{
closed = 1;
nodes = (
(418,448,l),
(415,448,l),
(384,497,o),
(340,526,o),
(271,526,cs),
(99,526,o),
(10,363,o),
(9,206,cs),
(8,70,o),
(86,-17,o),
(202,-17,cs),
(264,-17,o),
(320,19,o),
(350,61,c),
(352,61,l),
(341,0,l),
(518,0,l),
(656,715,l),
(470,715,l)
);
},
{
closed = 1;
nodes = (
(370,392,o),
(389,338,o),
(389,289,cs),
(389,217,o),
(351,124,o),
(277,124,cs),
(221,124,o),
(203,174,o),
(203,222,cs),
(203,295,o),
(236,391,o),
(313,392,cs)
);
}
);
width = 601;
}
);
note = d;
unicode = 100;
},
{
glyphname = e;
kernLeft = c;
kernRight = e;
lastChange = "2023-04-04 19:56:14 +0000";
layers = (
{
hints = (
{
horizontal = 1;
place = (-14, 127);
place = (-14, 127);
type = Stem;
},
{
horizontal = 1;
place = (209, 100);
place = (209, 100);
type = Stem;
},
{
horizontal = 1;
place = (401, 126);
place = (401, 126);
type = Stem;
},
{
place = (9, 177);
place = (9, 177);
type = Stem;
},
{
place = (372, 171);
place = (372, 171);
type = Stem;
},
{
horizontal = 1;
place = (-14, 166);
place = (-14, 166);
type = Stem;
}
);
layerId = m01;
shapes = (
{
closed = 1;
nodes = (
(566,398,o),
(489,527,o),
(300,527,cs),
(129,527,o),
(9,394,o),
(9,221,cs),
(9,68,o),
(123,-14,o),
(273,-14,cs),
(388,-14,o),
(492,43,o),
(526,152,c),
(346,152,l),
(333,124,o),
(304,113,o),
(273,113,cs),
(205,113,o),
(187,161,o),
(186,209,c),
(538,209,l)
);
},
{
closed = 1;
nodes = (
(199,309,l),
(218,377,o),
(261,401,o),
(299,401,cs),
(353,401,o),
(374,359,o),
(372,309,c)
);
}
);
width = 553;
}
);
note = e;
unicode = 101;
},
{
glyphname = f;
kernLeft = f;
kernRight = f;
lastChange = "2023-04-04 05:29:42 +0000";
layers = (
{
hints = (
{
horizontal = 1;
place = (0, 21);
target = up;
type = BottomGhost;
},
{
horizontal = 1;
place = (397, 113);
place = (397, 113);
type = Stem;
},
{
horizontal = 1;
place = (587, 128);
place = (587, 128);
type = Stem;
},
{
place = (19, 421);
place = (19, 421);
type = Stem;
},
{
horizontal = 1;
place = (708, 7);
place = (708, 7);
type = Stem;
}
);
layerId = m01;
shapes = (
{
closed = 1;
nodes = (
(33,397,l),
(96,397,l),
(19,0,l),
(205,0,l),
(281,397,l),
(379,397,l),
(402,510,l),
(304,510,l),
(307,528,ls),
(315,577,o),
(348,587,o),
(390,587,cs),
(398,587,o),
(405,587,o),
(416,586,c),
(440,708,l),
(412,712,o),
(383,715,o),
(348,715,cs),
(220,715,o),
(150,672,o),
(125,546,cs),
(118,510,l),
(56,510,l)
);
}
);
width = 362;
}
);
note = f;
unicode = 102;
},
{
glyphname = g;
kernLeft = g;
kernRight = g;
lastChange = "2023-04-04 19:56:16 +0000";
layers = (
{
hints = (
{
horizontal = 1;
place = (-178, 169);
place = (-178, 169);
type = Stem;
},
{
horizontal = 1;
place = (25, 130);
place = (25, 130);
type = Stem;
},
{
horizontal = 1;
place = (392, 134);
place = (392, 134);
type = Stem;
},
{
place = (10, 183);
place = (10, 183);
type = Stem;
},
{
horizontal = 1;
place = (392, 118);
place = (392, 118);
type = Stem;
},
{
horizontal = 1;
place = (-178, 125);
place = (-178, 125);
type = Stem;
}
);
layerId = m01;
shapes = (
{
closed = 1;
nodes = (
(400,447,l),
(397,447,l),
(364,504,o),
(313,526,o),
(252,526,cs),
(99,526,o),
(10,368,o),
(10,227,cs),
(10,107,o),
(93,25,o),
(196,25,cs),
(247,26,o),
(289,49,o),
(318,81,c),
(322,81,l),
(312,29,ls),
(302,-21,o),
(278,-53,o),
(225,-53,cs),
(186,-53,o),
(160,-38,o),
(154,-9,c),
(-24,-9,l),
(-11,-129,o),
(102,-178,o),
(219,-178,cs),
(379,-178,o),
(467,-115,o),
(497,40,cs),
(589,510,l),
(412,510,l)
);
},
{
closed = 1;
nodes = (
(351,392,o),
(370,346,o),
(370,301,cs),
(370,233,o),
(333,154,o),
(264,155,cs),
(212,155,o),
(193,199,o),
(193,245,cs),
(193,313,o),
(228,392,o),
(299,392,cs)
);
}
);
width = 573;
}
);
note = g;
unicode = 103;
},
{
glyphname = h;
kernLeft = b;
kernRight = h;
lastChange = "2023-04-04 05:36:16 +0000";
layers = (
{
hints = (
{
horizontal = 1;
place = (0, 21);
target = up;
type = BottomGhost;
},
{
horizontal = 1;
place = (526, -20);
target = down;
type = TopGhost;
},
{
horizontal = 1;
place = (715, -20);
target = down;
type = TopGhost;
},
{
place = (370, 191);
place = (370, 191);
type = Stem;
},
{
horizontal = 1;
place = (377, 149);
place = (377, 149);
type = Stem;
}
);
layerId = m01;
shapes = (
{
closed = 1;
nodes = (
(-17,0,l),
(169,0,l),
(223,281,ls),
(234,335,o),
(270,377,o),
(316,377,cs),
(365,377,o),
(376,342,o),
(367,297,cs),
(309,0,l),
(495,0,l),
(554,306,ls),
(582,449,o),
(521,526,o),
(416,526,cs),
(343,526,o),
(292,488,o),
(256,442,c),
(253,442,l),
(306,715,l),
(121,715,l)
);
}
);
width = 575;
}
);
note = h;
unicode = 104;
},
{
glyphname = i;
kernLeft = b;
layers = (
{
hints = (
{
horizontal = 1;
place = (0, 21);
target = up;
type = BottomGhost;
},
{
horizontal = 1;
place = (510, -20);
target = down;
type = TopGhost;
},
{
horizontal = 1;
place = (572, 143);
place = (572, 143);
type = Stem;
},
{
place = (-17, 324);
place = (-17, 324);
type = Stem;
}
);
layerId = m01;
shapes = (
{
closed = 1;
nodes = (
(-17,0,l),
(169,0,l),
(268,510,l),
(82,510,l)
);
},
{
closed = 1;
nodes = (
(94,572,l),
(280,572,l),
(307,715,l),
(121,715,l)
);
}
);
width = 253;
}
);
note = i;
unicode = 105;
},
{
glyphname = j;
kernLeft = j;
kernRight = j;
lastChange = "2023-04-04 05:41:49 +0000";
layers = (
{
hints = (
{
horizontal = 1;
place = (-174, 139);
place = (-174, 139);
type = Stem;
},
{
horizontal = 1;
place = (510, -20);
target = down;
type = TopGhost;
},
{
horizontal = 1;
place = (572, 143);
place = (572, 143);
type = Stem;
},
{
place = (-133, 440);
place = (-133, 440);
type = Stem;
}
);
layerId = m01;
shapes = (
{
closed = 1;
nodes = (
(-16,11,ls),
(-24,-29,o),
(-42,-36,o),
(-75,-36,cs),
(-85,-36,o),
(-96,-36,o),
(-108,-35,c),
(-133,-164,l),
(-110,-170,o),
(-81,-174,o),
(-43,-174,cs),
(77,-174,o),
(145,-125,o),
(167,-7,cs),
(268,510,l),
(82,510,l)
);
},
{
closed = 1;
nodes = (
(94,572,l),
(280,572,l),
(307,715,l),
(121,715,l)
);
}
);
width = 253;
}
);
note = j;
unicode = 106;
},
{
glyphname = k;
kernLeft = b;
kernRight = k;
lastChange = "2023-04-04 05:44:45 +0000";
layers = (
{
hints = (
{
horizontal = 1;
place = (0, 21);
target = up;
type = BottomGhost;
},
{
horizontal = 1;
place = (510, -20);
target = down;
type = TopGhost;
},
{
horizontal = 1;
place = (715, -20);
target = down;
type = TopGhost;
},
{
place = (-17, 609);
place = (-17, 609);
type = Stem;
}
);
layerId = m01;
shapes = (
{
closed = 1;
nodes = (
(-17,0,l),
(166,0,l),
(192,137,l),
(245,186,l),
(311,0,l),
(513,0,l),
(390,319,l),
(592,510,l),
(384,510,l),
(234,352,l),
(304,715,l),
(121,715,l)
);
}
);
width = 557;
}
);
note = k;
unicode = 107;
},
{
glyphname = l;
kernLeft = b;
layers = (
{
hints = (
{
horizontal = 1;
place = (0, 21);
target = up;
type = BottomGhost;
},
{
horizontal = 1;
place = (715, -20);
target = down;
type = TopGhost;
},
{
place = (-17, 329);
place = (-17, 329);
type = Stem;
}
);
layerId = m01;
shapes = (
{
closed = 1;
nodes = (
(-17,0,l),
(174,0,l),
(312,715,l),
(121,715,l)
);
}
);
width = 258;
}
);
note = l;
unicode = 108;
},
{
glyphname = m;
kernLeft = m;
kernRight = h;
layers = (
{
hints = (
{
horizontal = 1;
place = (0, 21);
target = up;
type = BottomGhost;
},
{
horizontal = 1;
place = (377, 133);
place = (377, 133);
type = Stem;
},
{
place = (672, 191);
place = (672, 191);
type = Stem;
},
{
horizontal = 1;
place = (377, 149);
place = (377, 149);
type = Stem;
}
);
layerId = m01;
shapes = (
{
closed = 1;
nodes = (
(-17,0,l),
(169,0,l),
(222,275,ls),
(234,335,o),
(264,377,o),
(310,377,cs),
(358,377,o),
(363,340,o),
(354,295,cs),
(297,0,l),
(483,0,l),
(536,275,ls),
(548,339,o),
(578,377,o),
(624,377,cs),
(671,377,o),
(677,342,o),
(668,295,cs),
(611,0,l),
(797,0,l),
(856,303,ls),
(881,431,o),
(838,526,o),
(715,526,cs),
(650,526,o),
(592,499,o),
(545,434,c),
(542,434,l),
(522,491,o),
(480,526,o),
(413,526,cs),
(337,526,o),
(291,488,o),
(248,431,c),
(245,431,l),
(260,510,l),
(82,510,l)
);
}
);
width = 877;
}
);
note = m;
unicode = 109;
},
{
glyphname = n;
kernLeft = m;
kernRight = h;
lastChange = "2023-04-04 05:50:52 +0000";
layers = (
{
hints = (
{
horizontal = 1;
place = (0, 21);
target = up;
type = BottomGhost;
},
{
horizontal = 1;
place = (377, 133);
place = (377, 133);
type = Stem;
},
{
place = (370, 191);
place = (370, 191);
type = Stem;
},
{
horizontal = 1;
place = (526, -20);
target = down;
type = TopGhost;
}
);
layerId = m01;
shapes = (
{
closed = 1;
nodes = (
(-17,0,l),
(169,0,l),
(223,281,ls),
(234,335,o),
(270,377,o),
(316,377,cs),
(365,377,o),
(376,342,o),
(367,297,cs),
(309,0,l),
(495,0,l),
(554,306,ls),
(582,449,o),
(521,526,o),
(416,526,cs),
(343,526,o),
(285,485,o),
(247,430,c),
(244,430,l),
(260,510,l),
(82,510,l)
);
}
);
width = 575;
}
);
note = n;
unicode = 110;
},
{
glyphname = o;
kernLeft = c;
kernRight = o;
lastChange = "2023-04-04 19:56:20 +0000";
layers = (
{
hints = (
{
horizontal = 1;
place = (-16, 126);
place = (-16, 126);
type = Stem;
},
{
horizontal = 1;
place = (398, 127);
place = (398, 127);
type = Stem;
},
{
place = (9, 187);
place = (9, 187);
type = Stem;
},
{
place = (373, 189);
place = (373, 189);
type = Stem;
}
);
layerId = m01;
shapes = (
{
closed = 1;
nodes = (
(125,525,o),
(9,387,o),
(9,214,cs),
(9,54,o),
(136,-16,o),
(262,-16,cs),
(445,-16,o),
(563,117,o),
(562,293,cs),
(561,454,o),
(436,525,o),
(306,525,cs)
);
},
{
closed = 1;
nodes = (
(356,398,o),
(373,349,o),
(373,299,cs),
(374,229,o),
(347,110,o),
(265,110,cs),
(212,110,o),
(196,155,o),
(196,207,cs),
(195,272,o),
(221,398,o),
(302,398,cs)
);
}
);
width = 572;
}
);
note = o;
unicode = 111;
},
{
glyphname = p;
kernLeft = p;
kernRight = thorn;
lastChange = "2023-04-04 19:56:22 +0000";
layers = (
{
hints = (
{
horizontal = 1;
place = (-169, 21);
target = up;
type = BottomGhost;
},
{
horizontal = 1;
place = (-17, 132);
place = (-17, 132);
type = Stem;
},
{
horizontal = 1;
place = (382, 128);
place = (382, 128);
type = Stem;
},
{
place = (392, 191);
place = (392, 191);
type = Stem;
},
{
horizontal = 1;
place = (382, 144);
place = (382, 144);
type = Stem;
}
);
layerId = m01;
shapes = (
{
closed = 1;
nodes = (
(-50,-169,l),
(136,-169,l),
(181,61,l),
(184,61,l),
(214,10,o),
(265,-17,o),
(334,-17,cs),
(504,-17,o),
(583,148,o),
(583,305,cs),
(583,430,o),
(517,526,o),
(404,526,cs),
(339,526,o),
(287,492,o),
(248,442,c),
(246,442,l),
(259,510,l),
(82,510,l)
);
},
{
closed = 1;
nodes = (
(377,382,o),
(392,331,o),
(392,285,cs),
(392,217,o),
(362,115,o),
(285,115,cs),
(226,115,o),
(207,170,o),
(207,219,cs),
(207,290,o),
(250,382,o),
(322,382,cs)
);
}
);
width = 594;
}
);
note = p;
unicode = 112;
},
{
glyphname = q;
kernLeft = d;
kernRight = q;
lastChange = "2023-04-04 19:56:24 +0000";
layers = (
{
hints = (
{
horizontal = 1;
place = (-169, 21);
target = up;
type = BottomGhost;
},
{
horizontal = 1;
place = (-17, 136);
place = (-17, 136);
type = Stem;
},
{
horizontal = 1;
place = (384, 142);
place = (384, 142);
type = Stem;
},
{
place = (8, 190);
place = (8, 190);
type = Stem;
},
{
horizontal = 1;
place = (384, 126);
place = (384, 126);
type = Stem;
}
);
layerId = m01;
shapes = (
{
closed = 1;
nodes = (
(436,510,l),
(421,434,l),
(418,434,l),
(392,493,o),
(338,526,o),
(276,526,cs),
(106,526,o),
(8,356,o),
(8,194,cs),
(8,67,o),
(81,-17,o),
(194,-17,cs),
(251,-17,o),
(301,11,o),
(334,52,c),
(337,52,l),
(295,-169,l),
(481,-169,l),
(613,510,l)
);
},
{
closed = 1;
nodes = (
(366,384,o),
(385,332,o),
(385,282,cs),
(385,204,o),
(343,119,o),
(268,119,cs),
(215,119,o),
(198,166,o),
(198,214,cs),
(198,293,o),
(233,384,o),
(310,384,cs)
);
}
);
width = 597;
}
);
note = q;
unicode = 113;
},
{
glyphname = r;
kernLeft = m;
kernRight = r;
lastChange = "2023-04-04 06:03:37 +0000";
layers = (
{
hints = (
{
horizontal = 1;
place = (0, 21);
target = up;
type = BottomGhost;
},
{
horizontal = 1;
place = (359, 151);
place = (359, 151);
type = Stem;
},
{
place = (-17, 458);
place = (-17, 458);
type = Stem;
},
{
horizontal = 1;
place = (516, -20);
target = down;
type = TopGhost;
},
{
horizontal = 1;
place = (359, 162);
place = (359, 162);
type = Stem;
}
);
layerId = m01;
shapes = (
{
closed = 1;
nodes = (
(-17,0,l),
(169,0,l),
(207,198,ls),
(229,311,o),
(278,359,o),
(366,359,cs),
(379,359,o),
(393,358,o),
(410,355,c),
(441,516,l),
(435,519,o),
(421,521,o),
(406,521,cs),
(343,521,o),
(290,493,o),
(246,425,c),
(243,425,l),
(260,510,l),
(82,510,l)
);
}
);
width = 404;
}
);
note = r;
unicode = 114;
},
{
glyphname = s;
kernLeft = scaron;
kernRight = scaron;
lastChange = "2023-04-04 06:05:16 +0000";
layers = (
{
hints = (
{
horizontal = 1;
place = (-17, 115);
place = (-17, 115);
type = Stem;
},
{
horizontal = 1;
place = (368, 158);
place = (368, 158);
type = Stem;
},
{
place = (32, 175);
place = (32, 175);
type = Stem;
},
{
place = (299, 178);
place = (299, 178);
type = Stem;
},
{
horizontal = 1;
place = (414, 112);
place = (414, 112);
type = Stem;
},
{
horizontal = 1;
place = (-17, 182);
place = (-17, 182);
type = Stem;
}
);
layerId = m01;
shapes = (
{
closed = 1;
nodes = (
(496,490,o),
(385,526,o),
(273,526,cs),
(137,526,o),
(32,464,o),
(32,347,cs),
(32,255,o),
(96,221,o),
(190,197,cs),
(251,181,o),
(299,176,o),
(299,140,cs),
(299,110,o),
(274,98,o),
(240,98,cs),
(184,98,o),
(165,125,o),
(164,165,c),
(-12,165,l),
(-13,19,o),
(118,-17,o),
(234,-17,cs),
(382,-17,o),
(477,47,o),
(477,175,cs),
(477,277,o),
(388,308,o),
(302,328,cs),
(236,343,o),
(207,354,o),
(207,379,cs),
(207,403,o),
(236,414,o),
(265,414,cs),
(301,414,o),
(326,401,o),
(329,368,c),
(500,368,l)
);
}
);
width = 510;
}
);
note = s;
unicode = 115;
},
{
glyphname = t;
kernLeft = t;
kernRight = t;
layers = (
{
hints = (
{
horizontal = 1;
place = (-10, 21);
target = up;
type = BottomGhost;
},
{
horizontal = 1;
place = (397, 113);
place = (397, 113);
type = Stem;
},
{
place = (48, 192);
place = (48, 192);
type = Stem;
},
{
horizontal = 1;
place = (-10, 143);
place = (-10, 143);
type = Stem;
}
);
layerId = m01;
shapes = (
{
closed = 1;
nodes = (
(33,397,l),
(98,397,l),
(53,161,ls),
(31,48,o),
(79,-10,o),
(204,-10,cs),
(245,-10,o),
(275,-3,o),
(297,3,c),
(323,135,l),
(312,134,o),
(297,133,o),
(287,133,cs),
(245,133,o),
(233,146,o),
(240,186,cs),
(280,397,l),
(375,397,l),
(398,510,l),
(303,510,l),
(335,675,l),
(153,675,l),
(121,510,l),
(56,510,l)
);
}
);
width = 364;
}
);
note = t;
unicode = 116;
},
{
glyphname = u;
kernLeft = u;
kernRight = u;
lastChange = "2023-04-04 06:08:11 +0000";
layers = (
{
hints = (
{
horizontal = 1;
place = (0, 135);
place = (0, 135);
type = Stem;
},
{
horizontal = 1;
place = (510, -20);
target = down;
type = TopGhost;
},
{
place = (9, 194);
place = (9, 194);
type = Stem;
},
{
horizontal = 1;
place = (-16, 21);
target = up;
type = BottomGhost;
}
);
layerId = m01;
shapes = (
{
closed = 1;
nodes = (
(15,195,ls),
(-12,58,o),
(54,-16,o),
(161,-16,cs),
(236,-16,o),
(288,24,o),
(324,81,c),
(327,81,l),
(312,0,l),
(489,0,l),
(588,510,l),
(402,510,l),
(347,225,ls),
(336,166,o),
(300,135,o),
(254,135,cs),
(205,135,o),
(197,178,o),
(206,223,cs),
(262,510,l),
(76,510,l)
);
}
);
width = 572;
}
);
note = u;
unicode = 117;
},
{
glyphname = v;
kernLeft = v;
kernRight = v;
lastChange = "2023-04-04 06:09:58 +0000";
layers = (
{
hints = (
{
horizontal = 1;
place = (0, 21);
target = up;
type = BottomGhost;
},
{
horizontal = 1;
place = (510, -20);
target = down;
type = TopGhost;
},
{
place = (45, 562);
place = (45, 562);
type = Stem;
}
);
layerId = m01;
shapes = (
{
closed = 1;
nodes = (
(125,0,l),
(343,0,l),
(607,510,l),
(417,510,l),
(268,189,l),
(267,189,l),
(235,510,l),
(45,510,l)
);
}
);
width = 554;
}
);
note = v;
unicode = 118;
},
{
glyphname = w;
kernLeft = w;
kernRight = w;
lastChange = "2023-04-04 06:10:06 +0000";
layers = (
{
hints = (
{
horizontal = 1;
place = (0, 21);
target = up;
type = BottomGhost;
},
{
horizontal = 1;
place = (510, -20);
target = down;
type = TopGhost;
},
{
place = (414, 120);
place = (414, 120);
type = Stem;
},
{
place = (425, 116);
place = (425, 116);
type = Stem;
}
);
layerId = m01;
shapes = (
{
closed = 1;
nodes = (
(106,0,l),
(283,0,l),
(412,314,l),
(414,314,l),
(433,0,l),
(611,0,l),
(862,510,l),
(671,510,l),
(544,214,l),
(542,214,l),
(530,510,l),
(373,510,l),
(251,216,l),
(249,216,l),
(234,510,l),
(45,510,l)
);
}
);
width = 809;
}
);
note = w;
unicode = 119;
},
{
glyphname = x;
kernLeft = x;
kernRight = x;
lastChange = "2023-04-04 06:14:31 +0000";
layers = (
{
hints = (
{
horizontal = 1;
place = (0, 21);
target = up;
type = BottomGhost;
},
{
horizontal = 1;
place = (510, -20);
target = down;
type = TopGhost;
},
{
place = (-53, 665);
place = (-53, 665);
type = Stem;
}
);
layerId = m01;
shapes = (
{
closed = 1;
nodes = (
(175,271,l),
(-53,0,l),
(162,0,l),
(266,149,l),
(268,149,l),
(315,0,l),
(523,0,l),
(408,260,l),
(612,510,l),
(402,510,l),
(315,379,l),
(313,379,l),
(276,510,l),
(68,510,l)
);
}
);
width = 576;
}
);
note = x;
unicode = 120;
},
{
glyphname = y;
kernLeft = yacute;
kernRight = yacute;
lastChange = "2023-04-04 06:17:22 +0000";
layers = (
{
hints = (
{
horizontal = 1;
place = (-169, 146);
place = (-169, 146);
type = Stem;
},
{
horizontal = 1;
place = (510, -20);
target = down;
type = TopGhost;
},
{
place = (-17, 625);
place = (-17, 625);
type = Stem;
}
);
layerId = m01;
shapes = (
{
closed = 1;
nodes = (
(129,88,ls),
(134,64,o),
(138,42,o),
(138,26,cs),
(138,-12,o),
(110,-23,o),
(77,-23,cs),
(55,-23,o),
(33,-23,o),
(11,-23,c),
(-17,-169,l),
(27,-169,o),
(71,-169,o),
(115,-169,cs),
(216,-169,o),
(284,-122,o),
(333,-27,cs),
(608,510,l),
(421,510,l),
(272,180,l),
(270,180,l),
(241,510,l),
(47,510,l)
);
}
);
width = 553;
}
);
note = y;
unicode = 121;
},
